<?xml version="1.0" standalone="no"?>
<!DOCTYPE svg PUBLIC "-//W3C//DTD SVG 20010904//EN"
 "http://www.w3.org/TR/2001/REC-SVG-20010904/DTD/svg10.dtd">
<svg version="1.0" xmlns="http://www.w3.org/2000/svg"
 width="888.000000pt" height="888.000000pt" viewBox="0 0 888.000000 888.000000"
 preserveAspectRatio="xMidYMid meet">
<metadata>
Created by potrace 1.11, written by Peter Selinger 2001-2013
</metadata>
<g transform="translate(0.000000,888.000000) scale(0.100000,-0.100000)"
fill="#000000" stroke="none">
<path d="M4479 5640 c-7 -5 -11 -11 -9 -13 3 -2 59 -26 125 -52 66 -26 136
-57 155 -69 19 -13 44 -26 56 -30 11 -3 20 -15 21 -26 2 -20 1 -20 -38 2 -21
12 -39 27 -39 34 0 14 -38 30 -47 20 -3 -3 -40 12 -82 33 -127 65 -167 82
-185 75 -23 -9 -20 -23 7 -35 19 -8 19 -9 -8 -5 -17 3 -37 1 -45 -4 -15 -9 16
-25 143 -76 26 -10 57 -27 68 -37 10 -10 19 -15 19 -12 0 3 9 1 21 -6 14 -7
18 -14 11 -21 -6 -6 -30 2 -68 23 -77 43 -207 109 -215 109 -14 0 -49 -43 -42
-53 4 -7 6 -24 5 -38 -3 -22 3 -29 35 -42 88 -37 264 -146 213 -132 -14 4 -32
13 -40 20 -8 6 -72 40 -142 75 -125 63 -127 63 -153 46 -14 -9 -25 -22 -23
-27 2 -5 54 -33 116 -61 66 -30 109 -55 104 -60 -5 -5 -37 7 -78 30 -38 22
-86 45 -106 51 -21 7 -40 17 -43 22 -3 5 -17 2 -30 -7 -14 -9 -23 -20 -20 -24
3 -4 -3 -7 -13 -6 -9 0 -16 -5 -14 -12 1 -8 -2 -11 -7 -7 -6 3 -29 -12 -53
-35 -35 -32 -41 -43 -32 -57 14 -23 183 -85 212 -78 15 4 21 2 17 -5 -3 -5
-20 -10 -37 -10 -51 0 -304 -65 -499 -129 -101 -33 -229 -71 -284 -85 -176
-44 -359 -95 -395 -110 -40 -16 -81 -30 -265 -88 -385 -121 -541 -158 -715
-170 -144 -10 -274 1 -333 27 -18 8 -67 26 -110 41 -42 15 -77 31 -77 35 0 5
-5 9 -11 9 -5 0 -7 -4 -4 -10 10 -17 -4 -11 -27 10 -14 13 -30 18 -47 15 -21
-4 -22 -4 -6 3 18 8 16 11 -20 33 -22 13 -57 33 -78 43 -20 11 -35 21 -32 24
6 6 -164 112 -179 112 -4 0 -3 -7 4 -15 7 -8 9 -15 5 -15 -4 0 -2 -7 5 -15 9
-10 9 -15 1 -15 -6 0 -11 4 -11 9 0 5 -31 30 -70 55 -73 48 -92 68 -40 41 17
-9 30 -12 30 -9 0 4 9 -1 20 -11 15 -14 23 -16 32 -7 9 9 -1 17 -38 34 -27 13
-71 38 -97 56 -65 43 -122 72 -144 72 -15 0 -14 -4 7 -21 l25 -21 -33 19 c-18
10 -28 19 -22 21 18 6 11 20 -18 31 -15 6 -45 21 -67 34 -34 19 -108 47 -128
47 -3 0 -6 -18 -5 -39 0 -28 7 -46 24 -62 13 -12 24 -28 24 -35 0 -7 28 -25
62 -41 39 -17 56 -29 45 -31 -10 -2 -30 4 -44 13 -34 22 -83 37 -83 24 0 -5 7
-21 16 -35 15 -22 15 -24 1 -18 -13 5 -14 1 -8 -23 6 -22 18 -32 57 -46 78
-29 335 -140 331 -143 -6 -7 -127 39 -127 48 0 5 -4 7 -9 4 -5 -3 -46 12 -92
33 -46 21 -99 42 -118 46 -32 7 -33 6 -27 -18 3 -15 11 -39 17 -54 6 -15 11
-30 11 -33 0 -3 4 -16 9 -29 5 -13 16 -66 25 -119 8 -53 21 -100 27 -104 9 -6
9 -8 0 -8 -16 0 -16 -13 -2 -62 10 -38 10 -38 63 -38 74 0 146 -11 146 -22 0
-5 -38 -6 -93 -2 l-92 6 -2 -71 c-1 -40 -5 -77 -9 -83 -4 -6 -8 -24 -10 -41
-1 -16 -7 -34 -13 -40 -16 -16 -14 -47 4 -47 14 0 171 35 208 46 9 3 17 1 17
-5 0 -6 -10 -11 -22 -11 -34 0 -68 -11 -63 -20 3 -4 -33 -11 -80 -15 -76 -6
-86 -9 -90 -28 -10 -50 -10 -97 0 -101 6 -3 5 -5 -2 -5 -7 -1 -13 -13 -13 -27
0 -14 4 -23 10 -19 5 3 10 0 10 -8 0 -8 -9 -17 -20 -20 -23 -6 -27 -44 -8 -70
13 -18 32 -13 143 32 11 4 45 16 75 25 30 10 92 35 137 56 46 21 85 34 88 29
4 -5 0 -9 -7 -9 -7 0 -29 -8 -48 -19 -19 -10 -46 -22 -60 -26 -14 -4 -53 -21
-88 -36 -34 -16 -68 -29 -75 -29 -7 0 -17 -4 -22 -9 -6 -5 -39 -19 -75 -31
-36 -12 -70 -26 -75 -31 -6 -4 -22 -34 -34 -66 -13 -32 -32 -67 -41 -78 -19
-22 -35 -75 -23 -75 5 0 23 9 41 20 18 11 37 20 43 20 6 0 33 16 59 35 26 19
52 35 58 35 5 0 16 7 23 17 13 15 11 16 -13 11 -15 -3 -29 0 -31 6 -2 6 40 27
92 47 53 20 127 50 165 68 38 17 71 29 74 26 3 -3 12 1 21 9 9 8 90 49 181 91
91 42 173 84 183 93 27 24 20 35 -21 28 -20 -3 -57 -8 -82 -11 l-45 -4 46 8
c25 5 54 14 65 19 52 29 170 64 259 79 92 15 124 15 420 -1 350 -18 374 -21
356 -39 -6 -6 -11 -22 -11 -35 0 -20 4 -23 21 -19 15 4 18 2 10 -7 -5 -6 -8
-21 -6 -31 2 -11 4 -27 4 -35 1 -8 10 -30 21 -48 l20 -33 33 17 c45 24 108 66
104 70 -2 2 -32 -8 -67 -22 -111 -45 -86 -10 30 41 60 27 110 52 110 57 0 18
-60 7 -89 -18 -28 -23 -90 -49 -98 -40 -2 2 22 18 54 36 l58 33 -30 8 c-22 7
-34 4 -50 -10 -26 -23 -75 -55 -75 -48 0 3 19 19 42 36 41 30 32 45 -12 21
-16 -8 -18 -8 -14 5 4 9 -2 18 -17 25 -21 8 -19 9 11 5 166 -25 237 -37 315
-55 50 -11 122 -27 160 -35 68 -15 160 -40 395 -111 63 -19 196 -50 295 -69
99 -19 221 -44 270 -54 134 -29 329 -54 372 -48 21 4 236 11 478 16 242 6 463
13 490 15 28 3 93 7 145 11 52 3 131 10 175 15 100 12 344 36 448 45 42 4 77
10 77 14 0 20 -31 42 -87 60 -34 12 -72 31 -85 44 l-23 23 40 26 c40 25 164
78 184 78 6 0 11 4 11 9 0 11 199 48 307 57 45 3 103 3 130 -1 47 -7 47 -8 19
-18 -21 -7 -30 -6 -36 3 -6 10 -19 10 -56 2 -27 -6 -78 -14 -114 -17 -72 -7
-202 -36 -268 -59 -24 -9 -70 -35 -104 -58 l-60 -42 22 -18 c13 -10 39 -18 61
-18 43 0 109 28 109 46 0 17 29 26 48 15 12 -7 3 -15 -43 -37 -32 -16 -59 -33
-59 -38 -3 -27 244 -114 286 -100 32 10 111 62 121 79 6 11 17 14 40 10 55
-11 516 68 570 97 20 10 20 11 -6 24 -14 8 -52 20 -84 28 -86 21 -128 41 -234
112 -116 78 -133 94 -159 144 -33 65 -36 120 -10 197 25 75 70 127 170 197
l55 38 -40 -42 c-22 -24 -56 -58 -75 -76 -54 -50 -78 -106 -86 -206 l-7 -87
54 -53 c64 -62 172 -130 255 -159 32 -12 64 -25 69 -29 6 -5 28 -10 49 -12 20
-1 40 -6 43 -11 2 -4 11 -3 18 3 9 7 26 5 61 -11 27 -11 63 -21 79 -21 31 1
325 76 430 110 33 11 94 29 137 41 118 32 187 61 222 91 24 22 28 31 19 41 -9
9 -34 8 -110 -4 -75 -13 -116 -14 -173 -7 -138 17 -137 17 -241 -60 -52 -38
-103 -70 -114 -70 -15 1 -11 5 12 15 18 7 51 31 75 52 74 68 140 105 217 125
41 10 99 32 129 48 43 23 68 30 113 30 129 0 120 32 -33 124 -48 29 -128 63
-215 91 -76 25 -147 52 -158 59 -11 7 -45 21 -75 31 -30 10 -98 33 -150 51
-183 63 -485 162 -520 169 -19 4 -87 28 -150 53 -63 25 -164 55 -223 68 -101
22 -157 31 -362 54 -44 5 -141 16 -215 24 -162 19 -272 24 -703 32 -203 3
-333 2 -340 -4 -7 -5 -60 -13 -120 -16 -59 -4 -113 -9 -120 -11 -21 -8 -69
-15 -205 -30 -156 -18 -162 -18 -142 -5 12 7 10 11 -10 18 -14 5 -41 16 -60
24 -19 8 -42 13 -50 10 -11 -4 -11 -1 3 12 16 16 19 16 54 -1 21 -9 44 -23 51
-30 8 -7 18 -11 22 -8 5 3 17 1 27 -6 14 -8 49 -6 148 9 72 12 164 24 205 28
41 3 79 9 85 12 5 3 21 7 35 8 36 4 288 15 330 14 l35 0 -53 50 c-85 80 -209
155 -432 263 -157 75 -192 88 -211 77z m58 -94 c57 -22 104 -45 93 -46 -7 0
-153 60 -159 65 -8 9 5 5 66 -19z m284 -149 c13 -9 -3 -3 -36 14 -81 42 -145
80 -145 86 0 5 148 -76 181 -100z m-441 73 c8 -5 11 -10 5 -10 -5 0 -17 5 -25
10 -8 5 -10 10 -5 10 6 0 17 -5 25 -10z m165 -75 c102 -47 252 -138 237 -143
-6 -2 -24 5 -39 16 -16 11 -95 54 -178 97 -211 110 -220 122 -20 30z m465 -50
c0 -2 -13 3 -30 11 -16 9 -30 20 -30 25 0 6 14 1 30 -11 17 -12 30 -23 30 -25z
m-79 -22 c13 -16 12 -17 -3 -4 -17 13 -22 21 -14 21 2 0 10 -8 17 -17z m67
-47 c-7 -8 -17 -12 -22 -9 -4 3 -2 9 5 14 22 13 31 11 17 -5z m-460 -42 c-6
-6 -66 25 -74 37 -3 6 13 1 36 -11 23 -12 40 -23 38 -26z m87 36 c3 -5 1 -10
-4 -10 -6 0 -11 5 -11 10 0 6 2 10 4 10 3 0 8 -4 11 -10z m-450 -28 c-3 -3
-11 0 -18 7 -9 10 -8 11 6 5 10 -3 15 -9 12 -12z m255 -21 c13 -13 11 -14 -15
-7 -17 4 -39 16 -50 27 -20 20 -20 20 15 7 19 -6 42 -18 50 -27z m9 -130 c-15
-5 -22 6 -14 19 6 9 10 9 16 -1 5 -8 4 -15 -2 -18z m1741 -16 c0 -8 -9 -19
-19 -24 -15 -8 -20 -7 -25 6 -7 17 9 33 32 33 6 0 12 -7 12 -15z m233 -10 c4
-8 3 -16 -1 -19 -13 -8 -35 11 -28 23 10 15 23 14 29 -4z m-523 -20 c0 -7 -6
-18 -14 -24 -17 -14 -41 11 -33 33 7 17 47 10 47 -9z m-810 0 c0 -23 -35 -37
-50 -20 -16 19 -4 35 26 35 14 0 24 -6 24 -15z m474 0 c23 -17 21 -21 -18 -31
-25 -6 -28 -5 -23 10 4 10 7 22 7 27 0 13 12 11 34 -6z m1132 -102 c-3 -3 -13
-3 -22 1 -13 5 -14 9 -3 22 11 14 13 14 22 -1 5 -9 6 -19 3 -22z m-2471 16 c4
-6 5 -12 3 -14 -7 -7 -48 7 -48 16 0 13 37 11 45 -2z m431 -48 c-10 -16 -36
-13 -43 5 -8 22 18 37 36 20 7 -8 10 -19 7 -25z m-3531 -117 c91 -61 115 -79
115 -88 0 -3 -39 19 -87 49 -49 31 -123 76 -165 101 -43 25 -78 50 -78 56 0
12 105 -46 215 -118z m2773 114 c-5 -15 -48 -24 -48 -10 0 14 12 22 33 22 10
0 17 -5 15 -12z m2448 -17 c-4 -5 -13 -8 -22 -4 -11 4 -12 8 -3 20 14 16 36 2
25 -16z m-5221 -46 l50 -46 -65 46 c-36 26 -67 51 -69 57 -6 17 31 -8 84 -57z
m3815 0 c0 -28 -21 -33 -40 -10 -10 12 -8 16 11 24 13 5 25 10 27 10 1 1 2
-10 2 -24z m1177 9 c5 -14 -11 -33 -28 -34 -10 0 -20 31 -13 41 9 15 34 10 41
-7z m-4882 -44 c10 -11 16 -20 13 -20 -3 0 -13 9 -23 20 -10 11 -16 20 -13 20
3 0 13 -9 23 -20z m51 -8 c-4 -3 -14 2 -24 12 -16 18 -16 18 6 6 13 -6 21 -14
18 -18z m4418 14 c-3 -8 -12 -12 -20 -9 -17 6 -9 23 11 23 8 0 12 -6 9 -14z
m-4494 -41 c13 -14 21 -25 18 -25 -2 0 -15 11 -28 25 -13 14 -21 25 -18 25 2
0 15 -11 28 -25z m-388 -15 c78 -21 254 -95 232 -98 -11 -2 -34 3 -50 9 -35
15 -39 16 -61 18 -16 1 -16 3 -3 11 8 5 12 10 8 10 -3 0 -14 3 -24 7 -12 4
-15 3 -10 -6 6 -9 2 -9 -15 1 -13 7 -26 16 -29 19 -3 4 -21 9 -41 12 -36 4
-79 23 -79 33 0 4 6 4 14 1 8 -3 34 -11 58 -17z m4558 -12 c0 -21 -25 -24 -33
-4 -7 17 -2 23 18 23 8 0 15 -9 15 -19z m-990 -7 c0 -12 -29 -35 -36 -28 -11
10 5 37 21 37 8 0 15 -4 15 -9z m-1306 -27 c4 -11 1 -14 -11 -12 -9 2 -18 9
-21 16 -6 18 25 15 32 -4z m-1934 -14 c13 -8 13 -10 -2 -10 -9 0 -20 5 -23 10
-8 13 5 13 25 0z m2530 -5 c0 -8 -9 -15 -20 -15 -20 0 -26 11 -13 23 12 13 33
7 33 -8z m-2233 -1 c-3 -3 -12 -4 -19 -1 -8 3 -5 6 6 6 11 1 17 -2 13 -5z
m-107 -18 c-79 -15 -101 -26 -134 -68 -15 -18 -24 -25 -20 -15 5 13 1 17 -15
17 -25 0 -91 30 -91 42 0 5 17 1 38 -8 71 -31 68 -32 134 31 6 6 43 11 82 12
l71 2 -65 -13z m-555 -14 c-3 -3 -11 0 -18 7 -9 10 -8 11 6 5 10 -3 15 -9 12
-12z m205 -64 c10 -6 7 -7 -10 -2 -14 3 -32 11 -40 16 -10 6 -7 7 10 2 14 -3
32 -11 40 -16z m6567 -13 c22 -15 50 -81 39 -92 -3 -3 -9 3 -12 13 -15 41 -56
74 -93 74 -27 0 -32 3 -21 10 22 14 63 12 87 -5z m-6506 -10 c19 -8 27 -14 19
-14 -14 0 -72 28 -59 29 4 0 22 -7 40 -15z m6402 -132 c5 -7 27 -13 50 -14
l42 -1 -44 -10 c-39 -9 -47 -7 -58 8 -18 25 -27 79 -17 111 7 25 9 21 14 -27
3 -30 9 -61 13 -67z m86 73 c-3 -3 -11 5 -18 17 -13 21 -12 21 5 5 10 -10 16
-20 13 -22z m-6374 -31 c-4 -25 -10 -44 -12 -41 -3 3 -2 26 2 51 3 26 9 45 12
42 2 -3 1 -26 -2 -52z m-68 -1 c-3 -3 -12 -4 -19 -1 -8 3 -5 6 6 6 11 1 17 -2
13 -5z m6377 -10 c3 -8 2 -12 -4 -9 -6 3 -10 10 -10 16 0 14 7 11 14 -7z
m-6307 -106 c-2 -13 -4 -3 -4 22 0 25 2 35 4 23 2 -13 2 -33 0 -45z m-47 21
c0 -13 -34 -11 -54 4 -16 12 -14 13 18 9 20 -2 36 -8 36 -13z m74 -238 c11
-20 36 -41 74 -60 43 -23 51 -30 33 -31 -43 0 -99 40 -118 87 -10 23 -20 43
-23 43 -3 0 -3 28 -1 62 l5 63 7 -66 c4 -37 14 -80 23 -98z m-179 129 c-4 -6
5 -10 21 -10 51 0 16 -12 -49 -17 -53 -4 -64 -2 -64 11 0 11 10 15 34 14 18
-1 36 2 40 5 10 11 25 8 18 -3z m-132 -17 c-7 -2 -19 -2 -25 0 -7 3 -2 5 12 5
14 0 19 -2 13 -5z m20 -20 c-7 -2 -21 -2 -30 0 -10 3 -4 5 12 5 17 0 24 -2 18
-5z m187 -57 c0 -9 -30 -14 -35 -6 -4 6 3 10 14 10 12 0 21 -2 21 -4z m-60
-16 c-8 -5 -22 -10 -30 -10 -13 0 -13 1 0 10 8 5 22 10 30 10 13 0 13 -1 0
-10z m5516 -91 c-34 -18 -62 -27 -67 -22 -6 6 14 18 48 30 82 29 87 27 19 -8z
m-129 15 c-3 -3 -12 -4 -19 -1 -8 3 -5 6 6 6 11 1 17 -2 13 -5z m-5273 -33 c6
-9 -27 -21 -59 -20 -15 0 -13 3 10 14 37 17 42 17 49 6z m-304 -28 c0 -14 -2
-15 -9 -4 -5 8 -14 10 -21 6 -9 -5 -11 -4 -6 3 11 18 36 14 36 -5z m5400 7
c-8 -5 -22 -9 -30 -9 -10 0 -8 3 5 9 27 12 43 12 25 0z m140 1 c0 -11 -49 -21
-55 -10 -3 4 3 10 12 12 30 8 43 7 43 -2z m-190 -17 c0 -6 -65 -34 -77 -34 -9
1 58 39 70 40 4 0 7 -2 7 -6z m-5370 -14 c0 -5 -8 -10 -17 -10 -15 0 -16 2 -3
10 19 12 20 12 20 0z m-53 -16 c-3 -3 -12 -4 -19 -1 -8 3 -5 6 6 6 11 1 17 -2
13 -5z m108 -14 c-3 -5 -14 -10 -23 -9 -14 0 -13 2 3 9 27 11 27 11 20 0z
m5220 0 c-3 -5 -12 -10 -18 -10 -7 0 -6 4 3 10 19 12 23 12 15 0z m-5303 -27
c-6 -2 -9 -10 -6 -15 4 -7 2 -8 -5 -4 -13 9 -5 26 12 25 9 0 8 -2 -1 -6z
m5820 -15 c-7 -7 -12 -8 -12 -2 0 14 12 26 19 19 2 -3 -1 -11 -7 -17z m-122
-22 c0 -2 -8 -10 -17 -17 -16 -13 -17 -12 -4 4 13 16 21 21 21 13z"/>
<path d="M2222 4704 c-28 -19 -28 -26 2 -60 21 -25 29 -27 82 -25 119 4 120
26 2 37 -35 4 -70 11 -78 16 -10 6 4 7 40 4 164 -15 230 -18 230 -9 0 15 -142
53 -201 53 -33 0 -63 -6 -77 -16z"/>
<path d="M2525 4684 c41 -15 85 -12 85 6 0 6 -28 10 -62 9 l-63 0 40 -15z"/>
<path d="M2760 4063 l-24 -17 23 -6 c19 -4 10 -12 -56 -45 -43 -22 -80 -43
-83 -47 -3 -4 -22 -14 -43 -23 l-37 -15 15 -30 c9 -17 13 -30 10 -30 -4 0 3
-13 14 -29 12 -16 21 -33 21 -38 0 -11 85 -83 99 -83 36 0 130 58 315 192 28
21 70 50 93 66 l42 29 -42 13 c-23 6 -59 18 -80 25 -21 8 -44 12 -52 9 -7 -3
-16 -1 -20 5 -10 17 -54 13 -83 -7 -44 -30 -59 -35 -29 -10 15 13 27 27 27 30
0 7 -56 28 -74 28 -6 0 -23 -8 -36 -17z m154 -68 c-4 -8 -10 -15 -15 -15 -5 0
-37 -22 -72 -49 -73 -57 -176 -121 -196 -121 -8 0 10 17 40 38 30 21 92 66
137 100 83 61 117 77 106 47z m-109 -4 c-11 -18 -216 -143 -223 -136 -9 9 27
35 51 35 10 0 15 5 12 10 -3 6 1 10 10 10 9 0 21 5 28 10 10 9 117 76 125 79
2 1 1 -3 -3 -8z m118 -48 c-13 -9 -23 -22 -23 -30 0 -11 7 -9 30 7 61 43 24
-5 -50 -65 -84 -69 -112 -77 -35 -10 27 24 48 46 45 48 -3 3 -41 -19 -85 -49
-99 -67 -166 -104 -146 -80 7 9 17 16 21 16 5 0 19 9 32 20 57 48 223 167 228
162 3 -2 -5 -11 -17 -19z"/>
<path d="M4576 3745 c-14 -15 -43 -62 -66 -106 -22 -43 -43 -79 -45 -79 -4 0
32 96 51 131 17 34 18 42 2 33 -10 -6 -10 -4 0 7 20 21 14 29 -22 29 -30 0
-44 -11 -121 -92 -48 -51 -78 -79 -67 -63 11 17 43 52 71 80 55 53 61 65 34
65 -26 0 -173 -158 -173 -186 0 -27 29 -162 40 -189 5 -11 11 -37 15 -57 8
-50 35 -82 62 -74 20 6 207 282 241 354 9 20 20 39 24 42 4 3 10 28 13 55 6
44 4 52 -14 63 -19 11 -24 9 -45 -13z m-125 -102 c-6 -10 -26 -36 -46 -58 -34
-38 -34 -37 6 18 40 55 60 75 40 40z m-43 -183 c-23 -38 -44 -67 -46 -65 -7 7
72 135 84 135 2 0 -15 -31 -38 -70z"/>
</g>
</svg>
